HIERARCHY
ROOT Hips
{
 OFFSET 0.000000 0.000000 0.000000
 CHANNELS 6 Xposition Yposition Zposition Yrotation Xrotation Zrotation
 JOINT Chest
 {
  OFFSET 0.000000 14.067100 -0.020500
  CHANNELS 3 Yrotation Xrotation Zrotation
  JOINT Chest2
  {
   OFFSET 0.000000 9.717300 0.041800
   CHANNELS 3 Yrotation Xrotation Zrotation
   JOINT Chest3
   {
    OFFSET 0.000000 9.672600 0.000000
    CHANNELS 3 Yrotation Xrotation Zrotation
    JOINT Chest4
    {
     OFFSET 0.000000 9.662700 0.000000
     CHANNELS 3 Yrotation Xrotation Zrotation
     JOINT Neck
     {
      OFFSET 0.000000 14.815200 0.000000
      CHANNELS 3 Yrotation Xrotation Zrotation
      JOINT Head
      {
       OFFSET 0.000000 9.056800 0.088400
       CHANNELS 3 Yrotation Xrotation Zrotation
       End Site
       {
        OFFSET 0.000000 17.018200 0.046700
       }
      }
     }
     JOINT RightCollar
     {
      OFFSET -3.269500 9.872600 0.000000
      CHANNELS 3 Yrotation Xrotation Zrotation
      JOINT RightShoulder
      {
       OFFSET -15.850600 0.000000 0.000000
       CHANNELS 3 Yrotation Xrotation Zrotation
       JOINT RightElbow
       {
        OFFSET 0.000000 -29.117400 0.000000
        CHANNELS 3 Yrotation Xrotation Zrotation
        JOINT RightWrist
        {
         OFFSET 0.000000 -23.969300 0.014600
         CHANNELS 3 Yrotation Xrotation Zrotation
         End Site
         {
          OFFSET 0.000000 -18.039300 0.000000
         }
        }
       }
      }
     }
     JOINT LeftCollar
     {
      OFFSET 3.269500 9.872600 0.000000
      CHANNELS 3 Yrotation Xrotation Zrotation
      JOINT LeftShoulder
      {
       OFFSET 15.850600 0.000000 0.000000
       CHANNELS 3 Yrotation Xrotation Zrotation
       JOINT LeftElbow
       {
        OFFSET 0.000000 -29.117400 0.000000
        CHANNELS 3 Yrotation Xrotation Zrotation
        JOINT LeftWrist
        {
         OFFSET 0.000000 -23.969300 0.014600
         CHANNELS 3 Yrotation Xrotation Zrotation
         End Site
         {
          OFFSET 0.000000 -18.039300 0.000000
         }
        }
       }
      }
     }
    }
   }
  }
 }
 JOINT RightHip
 {
  OFFSET -11.600400 0.101300 0.010200
  CHANNELS 3 Yrotation Xrotation Zrotation
  JOINT RightKnee
  {
   OFFSET 0.000000 -45.913300 -0.001400
   CHANNELS 3 Yrotation Xrotation Zrotation
   JOINT RightAnkle
   {
    OFFSET 0.000000 -46.966900 0.018600
    CHANNELS 3 Yrotation Xrotation Zrotation
    JOINT RightToe
    {
     OFFSET 0.000000 -10.064300 17.850900
     CHANNELS 3 Yrotation Xrotation Zrotation
     End Site
     {
      OFFSET 0.000000 -1.607600 6.976100
     }
    }
   }
  }
 }
 JOINT LeftHip
 {
  OFFSET 11.600400 0.101300 0.010200
  CHANNELS 3 Yrotation Xrotation Zrotation
  JOINT LeftKnee
  {
   OFFSET 0.000000 -45.913300 -0.001400
   CHANNELS 3 Yrotation Xrotation Zrotation
   JOINT LeftAnkle
   {
    OFFSET 0.000000 -46.966900 0.018600
    CHANNELS 3 Yrotation Xrotation Zrotation
    JOINT LeftToe
    {
     OFFSET 0.000000 -10.064300 17.850900
     CHANNELS 3 Yrotation Xrotation Zrotation
     End Site
     {
      OFFSET 0.000000 -1.607600 6.976100
     }
    }
   }
  }
 }
}
MOTION
Frames: 16
Frame Time: 0.008333
0.000000 102.636000 0.000000 0.000000 -5.767877 0.000000 0.000000 11.653817 0.000000 0.000000 -5.885947 0.000000 0.000000 -0.000000 0.000000 0.000000 -0.000000 0.000000 0.000000 12.528835 0.000000 0.000000 0.711642 0.000000 0.000000 -0.000000 0.000000 0.000000 0.000000 -90.000000 0.000000 -2.309062 0.000000 0.000000 2.309062 0.000000 0.000000 -0.000000 0.000000 0.000000 -0.000000 90.000000 0.000000 -2.309062 0.000000 0.000000 2.309062 0.000000 0.000000 8.520406 0.000000 0.000000 1.905762 0.000000 -0.000000 -4.658285 0.000000 0.000000 -0.000000 0.000000 0.000000 8.520406 0.000000 0.000000 1.905762 0.000000 -0.000000 -4.658285 0.000000 0.000000 -0.000000 0.000000
-256.396409 61.768704 -7.264353 175.113720 -29.940669 -1.124778 -0.781963 12.785966 1.570253 -0.449042 7.287896 1.309483 -0.540395 9.111972 1.632881 -0.447306 7.290980 1.308603 0.035345 18.191479 -2.153427 0.763846 -1.975557 -3.956254 6.897303 4.274126 -4.386586 -3.458615 -20.050435 -8.502394 33.895866 -55.776118 -23.511915 8.876578 7.162538 -33.209417 -1.818291 1.154764 -4.942949 3.286545 -25.031070 1.496870 -56.967724 -38.615226 33.550507 -4.981277 11.892268 38.965805 21.119053 -51.699976 -31.010373 -107.564659 64.701082 -95.761486 7.606754 -5.111122 1.637422 0.253281 -0.740493 0.120085 0.215872 -55.101320 8.920211 102.367394 83.126150 100.034042 -7.453869 -9.193859 1.995283 0.283814 0.594815 0.155688
-256.399708 61.769483 -7.266184 175.121204 -29.939959 -1.123475 -0.784142 12.789167 1.564976 -0.447088 7.286885 1.309008 -0.528998 9.113423 1.629872 -0.435538 7.290111 1.303754 0.028087 18.195102 -2.137542 0.749164 -1.978237 -3.940606 6.867742 4.267291 -4.372195 -3.455824 -20.049626 -8.503535 33.901930 -55.771369 -23.515095 8.879231 7.152733 -33.203371 -1.845130 1.150534 -4.925640 3.282879 -25.031706 1.497442 -56.942416 -38.617420 33.536848 -4.998315 11.882357 38.960520 21.117639 -51.698804 -31.021855 -107.564866 64.702030 -95.762696 7.623148 -5.099526 1.610455 0.240976 -0.747590 0.138411 0.222862 -55.101054 8.906430 102.350308 83.126422 100.017626 -7.452631 -9.193081 1.997475 0.284615 0.595437 0.156539
-256.401712 61.769837 -7.267006 175.119975 -29.934281 -1.123445 -0.780759 12.787530 1.565602 -0.440612 7.287487 1.307348 -0.529551 9.108847 1.630680 -0.434740 7.292796 1.302807 0.029388 18.197090 -2.130650 0.742845 -1.981881 -3.936723 6.859360 4.260895 -4.370129 -3.452113 -20.040967 -8.506939 33.910510 -55.775827 -23.518901 8.878622 7.153739 -33.206700 -1.853421 1.150039 -4.920349 3.282148 -25.035512 1.496759 -56.947207 -38.620456 33.538375 -4.997426 11.888831 38.961198 21.115402 -51.700157 -31.029392 -107.561416 64.707640 -95.755741 7.636480 -5.098644 1.611476 0.233624 -0.749090 0.132924 0.224482 -55.107177 8.903995 102.355415 83.126587 100.021398 -7.439925 -9.192713 1.998020 0.288403 0.595107 0.158143
-256.402888 61.770769 -7.268591 175.116285 -29.931919 -1.124501 -0.775694 12.789155 1.568847 -0.437833 7.288867 1.306185 -0.522065 9.112490 1.627339 -0.437835 7.288802 1.306280 0.028988 18.197926 -2.124078 0.743608 -1.980887 -3.926660 6.853369 4.245290 -4.372394 -3.456342 -20.032032 -8.503568 33.911047 -55.772921 -23.499343 8.876916 7.150754 -33.217308 -1.858587 1.144195 -4.915486 3.280836 -25.035731 1.495980 -56.949122 -38.622102 33.531459 -4.995530 11.893619 38.970365 21.115522 -51.699218 -31.027195 -107.560113 64.710385 -95.751324 7.639057 -5.100422 1.612490 0.240222 -0.746310 0.131288 0.224940 -55.108919 8.907003 102.371992 83.127786 100.038884 -7.435486 -9.196576 1.998600 0.287445 0.596679 0.158237
-256.402651 61.771678 -7.269915 175.110987 -29.928562 -1.129232 -0.769002 12.787342 1.576782 -0.435949 7.290287 1.305620 -0.520207 9.113527 1.626282 -0.436327 7.289652 1.305392 0.027957 18.198725 -2.117639 0.741635 -1.978429 -3.914481 6.854340 4.237592 -4.371363 -3.474460 -20.030598 -8.509521 33.904967 -55.777048 -23.471801 8.877519 7.146203 -33.222266 -1.864732 1.140009 -4.911478 3.281645 -25.037668 1.496361 -56.948969 -38.623462 33.529223 -4.995337 11.895814 38.972628 21.114669 -51.700934 -31.018089 -107.558772 64.711140 -95.741329 7.632190 -5.100008 1.605243 0.253248 -0.746342 0.134612 0.220357 -55.111180 8.919151 102.387637 83.128150 100.055578 -7.432362 -9.203870 1.997752 0.288551 0.600228 0.159287
-256.403179 61.772688 -7.271517 175.107462 -29.925933 -1.130041 -0.765378 12.785145 1.580132 -0.434480 7.291395 1.304239 -0.517861 9.115227 1.624971 -0.435234 7.290435 1.304400 0.026093 18.199932 -2.110785 0.740287 -1.977309 -3.903137 6.853110 4.232496 -4.368348 -3.480197 -20.031846 -8.512363 33.901150 -55.772991 -23.455580 8.877213 7.145420 -33.233652 -1.870005 1.135137 -4.904977 3.288616 -25.039758 1.492896 -56.947589 -38.623408 33.520666 -4.997097 11.898623 38.983564 21.119040 -51.700999 -31.015337 -107.563671 64.720656 -95.743722 7.627448 -5.103120 1.597839 0.258300 -0.745035 0.143567 0.220248 -55.113372 8.925571 102.396536 83.129820 100.066747 -7.445908 -9.204235 2.002781 0.279330 0.599615 0.154719
-256.404544 61.774306 -7.274370 175.104803 -29.928800 -1.125892 -0.762405 12.789359 1.577237 -0.435071 7.290414 1.304071 -0.515083 9.117374 1.624232 -0.434696 7.290954 1.303957 0.023765 18.202396 -2.103919 0.734345 -1.975993 -3.892652 6.849849 4.227253 -4.369992 -3.481521 -20.030690 -8.509362 33.904710 -55.769235 -23.449069 8.872414 7.150146 -33.238278 -1.875722 1.131234 -4.903187 3.292628 -25.035803 1.499388 -56.948507 -38.632614 33.516284 -5.000343 11.899089 38.981982 21.127303 -51.695424 -31.016084 -107.563053 64.719389 -95.741686 7.610728 -5.100727 1.604941 0.255786 -0.745040 0.139926 0.224745 -55.109805 8.922342 102.413757 83.129010 100.082920 -7.448578 -9.203898 2.002715 0.279849 0.596545 0.155291
-256.405156 61.775240 -7.275993 175.102866 -29.926581 -1.124331 -0.756959 12.789249 1.577871 -0.434537 7.291149 1.303926 -0.518052 9.115327 1.624489 -0.434585 7.291130 1.303921 0.022116 18.206767 -2.097494 0.728281 -1.972658 -3.880460 6.848036 4.226726 -4.372124 -3.475203 -20.035680 -8.516874 33.890837 -55.768634 -23.430121 8.868801 7.152014 -33.244420 -1.886802 1.128685 -4.903699 3.300859 -25.035119 1.506590 -56.947999 -38.642096 33.510295 -5.005237 11.906225 38.987302 21.133990 -51.695824 -31.016806 -107.561146 64.717873 -95.739737 7.604091 -5.098490 1.609483 0.254453 -0.745120 0.138728 0.226450 -55.110912 8.922436 102.421239 83.129179 100.090278 -7.449819 -9.206045 2.002252 0.282029 0.597007 0.156269
-256.404903 61.776206 -7.277628 175.097740 -29.925600 -1.123843 -0.746725 12.792807 1.582125 -0.432981 7.291787 1.303469 -0.520831 9.112394 1.624500 -0.434251 7.290869 1.303853 0.018198 18.208223 -2.091118 0.716553 -1.966198 -3.862546 6.846855 4.215939 -4.371887 -3.464888 -20.033568 -8.527148 33.867590 -55.765856 -23.411676 8.869391 7.152889 -33.242484 -1.891953 1.126991 -4.902445 3.302121 -25.030144 1.506957 -56.959907 -38.645606 33.516452 -4.999634 11.908881 38.991972 21.138633 -51.696303 -31.012435 -107.558930 64.715241 -95.736827 7.600214 -5.097303 1.612887 0.244230 -0.744732 0.137107 0.227792 -55.110559 8.927095 102.442718 83.130353 100.110024 -7.446093 -9.212001 2.006888 0.274304 0.599281 0.153971
-256.405366 61.776729 -7.278612 175.096590 -29.922359 -1.122268 -0.743926 12.791059 1.582229 -0.429666 7.292468 1.303868 -0.521530 9.113811 1.623013 -0.423871 7.293961 1.300147 0.006146 18.202134 -2.081662 0.689018 -1.956285 -3.810413 6.833029 4.207292 -4.365064 -3.463047 -20.034271 -8.528871 33.875680 -55.764757 -23.415029 8.869939 7.158846 -33.239435 -1.900533 1.117798 -4.892966 3.296617 -25.025694 1.506688 -56.964103 -38.646043 33.519521 -5.001175 11.910857 38.991311 21.144821 -51.698181 -31.013905 -107.556793 64.711543 -95.735015 7.597753 -5.097519 1.615549 0.244580 -0.744033 0.137065 0.229756 -55.113347 8.926074 102.453534 83.135451 100.121790 -7.444823 -9.214083 2.006691 0.281733 0.599646 0.155501
-256.406237 61.777063 -7.279152 175.093741 -29.918443 -1.118322 -0.738250 12.789336 1.583070 -0.428296 7.291654 1.302451 -0.512449 9.116349 1.621497 -0.430443 7.291477 1.301794 0.001926 18.204391 -2.072628 0.667754 -1.956261 -3.787827 6.824115 4.201090 -4.366292 -3.456074 -20.029929 -8.532009 33.873115 -55.768384 -23.409892 8.871344 7.157669 -33.241355 -1.905952 1.114967 -4.888363 3.297515 -25.023631 1.504319 -56.975453 -38.645878 33.522809 -4.995860 11.908797 38.981749 21.155763 -51.701031 -31.020000 -107.559411 64.706386 -95.738892 7.603198 -5.099250 1.614608 0.251052 -0.743529 0.140781 0.234667 -55.116549 8.922281 102.449794 83.136305 100.118118 -7.445773 -9.214253 2.007533 0.274352 0.599529 0.154159
-256.407297 61.777150 -7.279165 175.086919 -29.913848 -1.112012 -0.728915 12.787370 1.580598 -0.431115 7.288828 1.303123 -0.510128 9.119263 1.621288 -0.430390 7.290283 1.301774 -0.007732 18.209285 -2.055661 0.652129 -1.957796 -3.775563 6.826656 4.193251 -4.372553 -3.465199 -20.025788 -8.533477 33.861969 -55.769163 -23.392972 8.869564 7.152826 -33.245687 -1.908400 1.112813 -4.886413 3.300679 -25.020572 1.500306 -56.981163 -38.645567 33.527662 -4.996040 11.905592 38.978855 21.169229 -51.705087 -31.027697 -107.556775 64.706092 -95.739589 7.613074 -5.098299 1.613907 0.254963 -0.743978 0.144230 0.236243 -55.119506 8.917979 102.439598 83.132695 100.105558 -7.436032 -9.216874 2.005363 0.259534 0.601068 0.152251
-256.410236 61.776920 -7.278534 175.094770 -29.907007 -1.105945 -0.738017 12.781983 1.570055 -0.428814 7.289952 1.301935 -0.509964 9.121113 1.624222 -0.431662 7.286703 1.300973 -0.011778 18.212887 -2.047862 0.643875 -1.959288 -3.768471 6.829946 4.187882 -4.376091 -3.469969 -20.021177 -8.530760 33.870115 -55.766961 -23.394300 8.865416 7.153400 -33.253339 -1.908807 1.107897 -4.885938 3.303188 -25.012229 1.497105 -56.984433 -38.645621 33.533602 -4.998483 11.900700 38.976897 21.179135 -51.708773 -31.047526 -107.567403 64.711663 -95.748118 7.595257 -5.102994 1.610669 0.253581 -0.741828 0.146478 0.240989 -55.126219 8.901397 102.400735 83.138121 100.069042 -7.444274 -9.209755 2.004889 0.280289 0.599460 0.151103
-256.411275 61.777131 -7.278125 175.095490 -29.903892 -1.104297 -0.740042 12.780655 1.568193 -0.427970 7.294946 1.303812 -0.508841 9.117533 1.623016 -0.428854 7.289975 1.302087 -0.017087 18.207998 -2.046604 0.633785 -1.957985 -3.755545 6.829599 4.179705 -4.382337 -3.477069 -20.015293 -8.531883 33.873332 -55.770928 -23.392907 8.865165 7.154851 -33.249466 -1.910081 1.098700 -4.889061 3.302611 -25.005357 1.497169 -56.987554 -38.648747 33.536814 -4.995393 11.901879 38.977330 21.190559 -51.711312 -31.056677 -107.577126 64.711685 -95.753110 7.586071 -5.099724 1.606448 0.255262 -0.747380 0.148249 0.241468 -55.129002 8.896485 102.383507 83.139451 100.052720 -7.436302 -9.209768 2.000550 0.292507 0.600484 0.153253
-256.411410 61.777609 -7.277802 175.097274 -29.902964 -1.107272 -0.742869 12.783296 1.571569 -0.427100 7.293240 1.302423 -0.507861 9.117269 1.622889 -0.427547 7.292549 1.303013 -0.023882 18.209902 -2.037190 0.603845 -1.944496 -3.705955 6.829221 4.175422 -4.385470 -3.475042 -20.015821 -8.533329 33.872925 -55.767707 -23.391897 8.860713 7.151509 -33.250146 -1.910881 1.093485 -4.887351 3.305171 -25.002276 1.493313 -56.988169 -38.651431 33.536049 -4.989602 11.902551 38.987983 21.188773 -51.711145 -31.052235 -107.575954 64.710599 -95.749088 7.579551 -5.101490 1.606366 0.250174 -0.746398 0.147221 0.234698 -55.128891 8.898003 102.365367 83.141477 100.033478 -7.414241 -9.213847 1.991492 0.279567 0.603689 0.159424
